<?xml version="1.0" encoding="UTF-8"?>
<svg id="Layer_1" data-name="Layer 1" xmlns="http://www.w3.org/2000/svg" xmlns:xlink="http://www.w3.org/1999/xlink" viewBox="0 0 2649.09 1000">
  <defs>
    <style>
      .cls-1 {
        fill: none;
      }

      .cls-2 {
        fill: #111;
      }

      .cls-3 {
        fill: #b9dddc;
      }

      .cls-4 {
        fill: #eac68e;
      }

      .cls-5 {
        fill: #fbca52;
      }

      .cls-6 {
        clip-path: url(#clippath-1);
      }

      .cls-7 {
        clip-path: url(#clippath-2);
      }

      .cls-8 {
        fill: #ea9836;
      }

      .cls-9 {
        fill: #d85fed;
      }

      .cls-10 {
        clip-path: url(#clippath);
      }
    </style>
    <clipPath id="clippath">
      <rect class="cls-1" x="1899.09" width="750" height="1000"/>
    </clipPath>
    <clipPath id="clippath-1">
      <rect class="cls-1" x="935.29" width="750" height="1000"/>
    </clipPath>
    <clipPath id="clippath-2">
      <rect class="cls-1" width="750" height="1000"/>
    </clipPath>
  </defs>
  <g class="cls-10">
    <g>
      <path class="cls-2" d="M2332.63,91.83l8.02.03c21-.26,47.04-.73,67.82,0l8.65-.12c25.13-.28,41.77,2.03,31.52,32.96-2.73,8.24-6.01,16.46-9.01,24.62l-2.73,7.9-13.73,38.39c-1.81,5.09-6.51,17.5-7.15,22.14-2.52,4.92-10.03,25.71-10.97,31.09-9.3,27.18-20.32,62.04-31.12,88.08l-3.14,8.53c-8.43,25.76-17.43,51.32-27.01,76.68l64.27.1,8.93-.03c10.46-.06,64.47-1.38,70.84.8,5.51,2.81,7.5,4.63,11.47,9.38,3.03,10.35,1.17,12.9-3.22,22.61-2.03,2.54-8.4,11.09-8.94,14.05l.06.2c-7.17,6.69-24.69,34.62-30.06,43.43-2.12,2.57-3.73,4.75-5.66,7.46-5.37,7.02-31.66,45.5-34.63,51.86-2.12,2.9-5.75,7.87-7.12,11.14-5.31,6.39-8.05,11.02-12.48,18.04l-4.96,7.2c-7.36,11.2-10.36,16.79-22.01,23.84-7.93,25.48-18.66,33.71-31.6,55.5-1.42,1.9-5.99,8.19-6.73,10.33-4.29,5.47-8.67,11.89-12.47,17.77-12.81,19.83-27.45,38.99-39.98,58.94-2,3.04-4,6.14-6.04,9.16-2.47,3.27-6.83,9.56-8.84,13.26-3.47,4.63-4.96,6.81-7.85,11.95-10.78,12.54-27.39,39.71-36.84,54.35l-5.01,7.4c-6.3,9.53-20.17,29.36-25.02,38.45-1.39,1.51-7.54,7.96-8.22,9.27-8.56,2.67-24.91,3.46-33.28.68-21.45-7.12-10.97-32.87-5.98-47.65.47-2.56,1.32-5.81,1.92-8.41,6.62-23.95,12.1-54.1,18.48-79.19l1.65-8.26c6.92-23.59,10.54-54.14,17.6-78.17,2.18-7.49,3.99-15.08,5.44-22.74,1.43-4.86,4.15-13.76,3.76-18.51,3.48-9.26,7.93-28.87,8.68-38.63l-10.74-.61c-1.93-.22-4.91-.03-6.94.03-18.75.79-49.6.94-68.25.04l-7.36-.06c-4.45.54-14.19.39-18.89.28-17.22-.39-35.61,3.73-50.84-5.67-6.93-14.81-4.17-18.52.19-33.73,6.44-13.09,14.6-41.48,20.35-56.7.74-2.61,2.01-5.89,2.94-8.49,2.53-5.4,7.16-19.75,9.28-25.84,6.08-17.97,12.38-35.87,18.9-53.69l3.1-8.74c4.32-11.76,12.34-33.73,15.42-45.37,2.75-4.76,5.77-14.31,7.64-19.73,1.79-3.48,3.52-9.67,4.75-13.57,1.01-2.09,2.43-6.58,3.26-8.95,2.8-9.9,8.39-21.22,11.74-31.22,5.98-17.84,11.82-35.72,17.83-53.54.83-1.06,2.75-6.68,3.35-8.31,7.44-25.4,20.83-60.67,30.36-85.7,1.38-3.04,4.28-10.4,4.55-13.56,12.56-24.96,8.55-56.63,46.04-53.02,5.99.58,14.2.08,20.67.51,3.48.22,4.54.26,8.01-.18,18.17-1.06,48.43-.2,67.36-.06Z"/>
      <path class="cls-5" d="M2260.8,107.12l111.63-.09c18.29-.03,46.29-1.06,63.54.93-1.07,8.73-7.29,24.93-10.44,34.05-7.48,21.6-15.07,43.15-22.78,64.67l-22.35,64.66c-2.65,7.44-8.58,24.75-12.37,31.04-57.49.54-119.73,1.22-177.06-.11,22.96-64.03,48.27-130.93,69.81-195.15Z"/>
      <path class="cls-5" d="M2185.81,316.85l85.64.67c-6.68,20.77-20.42,50.22-29.2,71.15l-46.75,113.6c-5.39,13.01-22.53,51.25-23.64,63.05,2.91,9.31,31.44,6.32,39.95,5.98l-5.97,26.26c-.49,2.05-.47,2.17-1.87,3.65-4.15.83-26.66.76-31.95.81-28.67.35-57.34.27-86.01-.24,5.8-24.31,19.67-57.11,28.12-82.1,22.81-67.5,49.42-135.22,71.69-202.83Z"/>
      <path class="cls-5" d="M2264.74,571.29l64.64-.51c-4.03,10.29-23.98,49.31-20.47,57.67.63,1.51,1.45,2.5,2.99,3.17,7.87,3.41,32.33,1.02,42.27,1.46-10.88,21.37-31.81,50.19-45.72,70.62l-66.53,98.44c-8.52,12.54-16.77,25.28-25.18,37.88-1.55,2.32-8.92,13.87-10.09,15.15-1.87.1-2.6.06-4.47-.11-2.13-1.96-1.43-1.13-2.36-4.5,14.53-59.91,28.63-119.93,42.31-180.04l14.02-60.61c2.81-12.01,6.6-26.65,8.58-38.62Z"/>
      <path class="cls-5" d="M2338.31,437.39l89.26-.26c19.9-.06,39.32-.47,59.17,1.17-8.08,16.16-25.7,40.25-36.38,55.9l-63.57,93.44c-7.24,11.29-12.34,19.18-21.08,29.22-12.45.31-25.96.88-38.31.32,17.7-43.27,39.15-86.01,53.5-130.26,3.28-10.12-52.42-6.14-57.78-5.92,4.75-14.64,9.81-29.17,15.18-43.6Z"/>
      <path class="cls-5" d="M2288.66,317.02c20.51.52,56.93-1.71,75.44.49-8.61,26.77-18.76,53.71-28.31,80.23l-29.53,83.53-11.34-.06c-24.56-.51-49.67,0-74.35-.27,23.6-54.55,45.2-109.13,68.09-163.92Z"/>
      <path class="cls-9" d="M2214.56,495.83c48.14-1.34,99.78-.82,147.92,0-8.24,20.08-17.58,39.88-26.17,59.91-3.64,1.53-132.13.1-146.05-.28,7.5-20.11,15.61-40,24.3-59.63Z"/>
      <path class="cls-9" d="M2227.07,570.81c7.24-.18,15.1-.01,22.38,0-9.87,37.49-17.39,78.84-26.78,117.2-17.66,72.17-35.55,144.74-50.4,217.49-5.74,1.18-14.55-.22-20.33-1.28.21-16.19,14.54-68.51,18.93-87.59l31.67-138.31c8.52-36.37,17.45-70.75,24.52-107.53Z"/>
      <path class="cls-9" d="M2146.47,316.88c7.59,0,15.18.08,22.76.21-11.12,34.44-23.82,67.89-36.05,101.92l-32.98,94.22c-9.58,27.08-23.44,61.53-29.94,88.41-4.94.61-17.83,1.15-21.38-2.22-.22-9.33,13.27-44.49,17-55.21l25.18-72.19c10.23-29.25,20.61-58.44,31.16-87.58,7.99-22.62,15.5-45.21,24.24-67.56Z"/>
      <path class="cls-9" d="M2222.38,107.1c7.45-.13,14.98-.11,22.44-.15-13.61,41.14-30.86,82.1-44.51,123.4-7.94,24.01-16.48,48.98-26.22,72.25l-22.32-.34c3.72-12.74,9.56-27.85,14.09-40.56l24.56-68.88,16.96-47.72c4.4-12.42,8.95-26.43,15.01-38Z"/>
      <path class="cls-4" d="M2199.84,850.56c.93,3.37.23,2.54,2.36,4.5,1.87.17,2.6.21,4.47.11-2.81,4.96-8.34,12.64-11.68,17.58l4.85-22.19Z"/>
    </g>
  </g>
  <g class="cls-6">
    <g>
      <path class="cls-2" d="M1368.83,91.83l8.02.03c21-.26,47.04-.73,67.82,0l8.65-.12c25.13-.28,41.77,2.03,31.52,32.96-2.73,8.24-6.01,16.46-9.01,24.62l-2.73,7.9-13.73,38.39c-1.81,5.09-6.51,17.5-7.15,22.14-2.52,4.92-10.03,25.71-10.97,31.09-9.3,27.18-20.32,62.04-31.12,88.08l-3.14,8.53c-8.43,25.76-17.43,51.32-27.01,76.68l64.27.1,8.93-.03c10.46-.06,64.47-1.38,70.84.8,5.51,2.81,7.5,4.63,11.47,9.38,3.03,10.35,1.17,12.9-3.22,22.61-2.03,2.54-8.4,11.09-8.94,14.05l.06.2c-7.17,6.69-24.69,34.62-30.06,43.43-2.12,2.57-3.73,4.75-5.66,7.46-5.37,7.02-31.66,45.5-34.63,51.86-2.12,2.9-5.75,7.87-7.12,11.14-5.31,6.39-8.05,11.02-12.48,18.04l-4.96,7.2c-7.36,11.2-10.36,16.79-22.01,23.84-7.93,25.48-18.66,33.71-31.6,55.5-1.42,1.9-5.99,8.19-6.73,10.33-4.29,5.47-8.67,11.89-12.47,17.77-12.81,19.83-27.45,38.99-39.98,58.94-2,3.04-4,6.14-6.04,9.16-2.47,3.27-6.83,9.56-8.84,13.26-3.47,4.63-4.96,6.81-7.85,11.95-10.78,12.54-27.39,39.71-36.84,54.35l-5.01,7.4c-6.3,9.53-20.17,29.36-25.02,38.45-1.39,1.51-7.54,7.96-8.22,9.27-8.56,2.67-24.91,3.46-33.28.68-21.45-7.12-10.97-32.87-5.98-47.65.47-2.56,1.32-5.81,1.92-8.41,6.62-23.95,12.1-54.1,18.48-79.19l1.65-8.26c6.92-23.59,10.54-54.14,17.6-78.17,2.18-7.49,3.99-15.08,5.44-22.74,1.43-4.86,4.15-13.76,3.76-18.51,3.48-9.26,7.93-28.87,8.68-38.63l-10.74-.61c-1.93-.22-4.91-.03-6.94.03-18.75.79-49.6.94-68.25.04l-7.36-.06c-4.45.54-14.19.39-18.89.28-17.22-.39-35.61,3.73-50.84-5.67-6.93-14.81-4.17-18.52.19-33.73,6.44-13.09,14.6-41.48,20.35-56.7.74-2.61,2.01-5.89,2.94-8.49,2.53-5.4,7.16-19.75,9.28-25.84,6.08-17.97,12.38-35.87,18.9-53.69l3.1-8.74c4.32-11.76,12.34-33.73,15.42-45.37,2.75-4.76,5.77-14.31,7.64-19.73,1.79-3.48,3.52-9.67,4.75-13.57,1.01-2.09,2.43-6.58,3.26-8.95,2.8-9.9,8.39-21.22,11.74-31.22,5.98-17.84,11.82-35.72,17.83-53.54.83-1.06,2.75-6.68,3.35-8.31,7.44-25.4,20.83-60.67,30.36-85.7,1.38-3.04,4.28-10.4,4.55-13.56,12.56-24.96,8.55-56.63,46.04-53.02,5.99.58,14.2.08,20.67.51,3.48.22,4.54.26,8.01-.18,18.17-1.06,48.43-.2,67.36-.06Z"/>
      <path class="cls-5" d="M1297,107.12l111.63-.09c18.29-.03,46.29-1.06,63.54.93-1.07,8.73-7.29,24.93-10.44,34.05-7.48,21.6-15.07,43.15-22.78,64.67l-22.35,64.66c-2.65,7.44-8.58,24.75-12.37,31.04-57.49.54-119.73,1.22-177.06-.11,22.96-64.03,48.27-130.93,69.81-195.15Z"/>
      <path class="cls-5" d="M1222.01,316.85l85.64.67c-6.68,20.77-20.42,50.22-29.2,71.15l-46.75,113.6c-5.39,13.01-22.53,51.25-23.64,63.05,2.91,9.31,31.44,6.32,39.95,5.98l-5.97,26.26c-.49,2.05-.47,2.17-1.87,3.65-4.15.83-26.66.76-31.95.81-28.67.35-57.34.27-86.01-.24,5.8-24.31,19.67-57.11,28.12-82.1,22.81-67.5,49.42-135.22,71.69-202.83Z"/>
      <path class="cls-5" d="M1300.94,571.29l64.64-.51c-4.03,10.29-23.98,49.31-20.47,57.67.63,1.51,1.45,2.5,2.99,3.17,7.87,3.41,32.33,1.02,42.27,1.46-10.88,21.37-31.81,50.19-45.72,70.62l-66.53,98.44c-8.52,12.54-16.77,25.28-25.18,37.88-1.55,2.32-8.92,13.87-10.09,15.15-1.87.1-2.6.06-4.47-.11-2.13-1.96-1.43-1.13-2.36-4.5,14.53-59.91,28.63-119.93,42.31-180.04l14.02-60.61c2.81-12.01,6.6-26.65,8.58-38.62Z"/>
      <path class="cls-5" d="M1374.51,437.39l89.26-.26c19.9-.06,39.32-.47,59.17,1.17-8.08,16.16-25.7,40.25-36.38,55.9l-63.57,93.44c-7.24,11.29-12.34,19.18-21.08,29.22-12.45.31-25.96.88-38.31.32,17.7-43.27,39.15-86.01,53.5-130.26,3.28-10.12-52.42-6.14-57.78-5.92,4.75-14.64,9.81-29.17,15.18-43.6Z"/>
      <path class="cls-5" d="M1324.86,317.02c20.51.52,56.93-1.71,75.44.49-8.61,26.77-18.76,53.71-28.31,80.23l-29.53,83.53-11.34-.06c-24.56-.51-49.67,0-74.35-.27,23.6-54.55,45.2-109.13,68.09-163.92Z"/>
      <path class="cls-3" d="M1250.76,495.83c48.14-1.34,99.78-.82,147.92,0-8.24,20.08-17.58,39.88-26.17,59.91-3.64,1.53-132.13.1-146.05-.28,7.5-20.11,15.61-40,24.3-59.63Z"/>
      <path class="cls-3" d="M1263.27,570.81c7.24-.18,15.1-.01,22.38,0-9.87,37.49-17.39,78.84-26.78,117.2-17.66,72.17-35.55,144.74-50.4,217.49-5.74,1.18-14.55-.22-20.33-1.28.21-16.19,14.54-68.51,18.93-87.59l31.67-138.31c8.52-36.37,17.45-70.75,24.52-107.53Z"/>
      <path class="cls-3" d="M1182.67,316.88c7.59,0,15.18.08,22.76.21-11.12,34.44-23.82,67.89-36.05,101.92l-32.98,94.22c-9.58,27.08-23.44,61.53-29.94,88.41-4.94.61-17.83,1.15-21.38-2.22-.22-9.33,13.27-44.49,17-55.21l25.18-72.19c10.23-29.25,20.61-58.44,31.16-87.58,7.99-22.62,15.5-45.21,24.24-67.56Z"/>
      <path class="cls-3" d="M1258.58,107.1c7.45-.13,14.98-.11,22.44-.15-13.61,41.14-30.86,82.1-44.51,123.4-7.94,24.01-16.48,48.98-26.22,72.25l-22.32-.34c3.72-12.74,9.56-27.85,14.09-40.56l24.56-68.88,16.96-47.72c4.4-12.42,8.95-26.43,15.01-38Z"/>
      <path class="cls-4" d="M1236.04,850.56c.93,3.37.23,2.54,2.36,4.5,1.87.17,2.6.21,4.47.11-2.81,4.96-8.34,12.64-11.68,17.58l4.85-22.19Z"/>
    </g>
  </g>
  <g class="cls-7">
    <g>
      <path class="cls-2" d="M433.54,91.83l8.02.03c21-.26,47.04-.73,67.82,0l8.65-.12c25.13-.28,41.77,2.03,31.52,32.96-2.73,8.24-6.01,16.46-9.01,24.62l-2.73,7.9-13.73,38.39c-1.81,5.09-6.51,17.5-7.15,22.14-2.52,4.92-10.03,25.71-10.97,31.09-9.3,27.18-20.32,62.04-31.12,88.08l-3.14,8.53c-8.43,25.76-17.43,51.32-27.01,76.68l64.27.1,8.93-.03c10.46-.06,64.47-1.38,70.84.8,5.51,2.81,7.5,4.63,11.47,9.38,3.03,10.35,1.17,12.9-3.22,22.61-2.03,2.54-8.4,11.09-8.94,14.05l.06.2c-7.17,6.69-24.69,34.62-30.06,43.43-2.12,2.57-3.73,4.75-5.66,7.46-5.37,7.02-31.66,45.5-34.63,51.86-2.12,2.9-5.75,7.87-7.12,11.14-5.31,6.39-8.05,11.02-12.48,18.04l-4.96,7.2c-7.36,11.2-10.36,16.79-22.01,23.84-7.93,25.48-18.66,33.71-31.6,55.5-1.42,1.9-5.99,8.19-6.73,10.33-4.29,5.47-8.67,11.89-12.47,17.77-12.81,19.83-27.45,38.99-39.98,58.94-2,3.04-4,6.14-6.04,9.16-2.47,3.27-6.83,9.56-8.84,13.26-3.47,4.63-4.96,6.81-7.85,11.95-10.78,12.54-27.39,39.71-36.84,54.35l-5.01,7.4c-6.3,9.53-20.17,29.36-25.02,38.45-1.39,1.51-7.54,7.96-8.22,9.27-8.56,2.67-24.91,3.46-33.28.68-21.45-7.12-10.97-32.87-5.98-47.65.47-2.56,1.32-5.81,1.92-8.41,6.62-23.95,12.1-54.1,18.48-79.19l1.65-8.26c6.92-23.59,10.54-54.14,17.6-78.17,2.18-7.49,3.99-15.08,5.44-22.74,1.43-4.86,4.15-13.76,3.76-18.51,3.48-9.26,7.93-28.87,8.68-38.63l-10.74-.61c-1.93-.22-4.91-.03-6.94.03-18.75.79-49.6.94-68.25.04l-7.36-.06c-4.45.54-14.19.39-18.89.28-17.22-.39-35.61,3.73-50.84-5.67-6.93-14.81-4.17-18.52.19-33.73,6.44-13.09,14.6-41.48,20.35-56.7.74-2.61,2.01-5.89,2.94-8.49,2.53-5.4,7.16-19.75,9.28-25.84,6.08-17.97,12.38-35.87,18.9-53.69l3.1-8.74c4.32-11.76,12.34-33.73,15.42-45.37,2.75-4.76,5.77-14.31,7.64-19.73,1.79-3.48,3.52-9.67,4.75-13.57,1.01-2.09,2.43-6.58,3.26-8.95,2.8-9.9,8.39-21.22,11.74-31.22,5.98-17.84,11.82-35.72,17.83-53.54.83-1.06,2.75-6.68,3.35-8.31,7.44-25.4,20.83-60.67,30.36-85.7,1.38-3.04,4.28-10.4,4.55-13.56,12.56-24.96,8.55-56.63,46.04-53.02,5.99.58,14.2.08,20.67.51,3.48.22,4.54.26,8.01-.18,18.17-1.06,48.43-.2,67.36-.06Z"/>
      <path class="cls-5" d="M361.71,107.12l111.63-.09c18.29-.03,46.29-1.06,63.54.93-1.07,8.73-7.29,24.93-10.44,34.05-7.48,21.6-15.07,43.15-22.78,64.67l-22.35,64.66c-2.65,7.44-8.58,24.75-12.37,31.04-57.49.54-119.73,1.22-177.06-.11,22.96-64.03,48.27-130.93,69.81-195.15Z"/>
      <path class="cls-5" d="M286.73,316.85l85.64.67c-6.68,20.77-20.42,50.22-29.2,71.15l-46.75,113.6c-5.39,13.01-22.53,51.25-23.64,63.05,2.91,9.31,31.44,6.32,39.95,5.98l-5.97,26.26c-.49,2.05-.47,2.17-1.87,3.65-4.15.83-26.66.76-31.95.81-28.67.35-57.34.27-86.01-.24,5.8-24.31,19.67-57.11,28.12-82.1,22.81-67.5,49.42-135.22,71.69-202.83Z"/>
      <path class="cls-5" d="M365.66,571.29l64.64-.51c-4.03,10.29-23.98,49.31-20.47,57.67.63,1.51,1.45,2.5,2.99,3.17,7.87,3.41,32.33,1.02,42.27,1.46-10.88,21.37-31.81,50.19-45.72,70.62l-66.53,98.44c-8.52,12.54-16.77,25.28-25.18,37.88-1.55,2.32-8.92,13.87-10.09,15.15-1.87.1-2.6.06-4.47-.11-2.13-1.96-1.43-1.13-2.36-4.5,14.53-59.91,28.63-119.93,42.31-180.04l14.02-60.61c2.81-12.01,6.6-26.65,8.58-38.62Z"/>
      <path class="cls-5" d="M439.23,437.39l89.26-.26c19.9-.06,39.32-.47,59.17,1.17-8.08,16.16-25.7,40.25-36.38,55.9l-63.57,93.44c-7.24,11.29-12.34,19.18-21.08,29.22-12.45.31-25.96.88-38.31.32,17.7-43.27,39.15-86.01,53.5-130.26,3.28-10.12-52.42-6.14-57.78-5.92,4.75-14.64,9.81-29.17,15.18-43.6Z"/>
      <path class="cls-5" d="M389.57,317.02c20.51.52,56.93-1.71,75.44.49-8.61,26.77-18.76,53.71-28.31,80.23l-29.53,83.53-11.34-.06c-24.56-.51-49.67,0-74.35-.27,23.6-54.55,45.2-109.13,68.09-163.92Z"/>
      <path class="cls-8" d="M315.48,495.83c48.14-1.34,99.78-.82,147.92,0-8.24,20.08-17.58,39.88-26.17,59.91-3.64,1.53-132.13.1-146.05-.28,7.5-20.11,15.61-40,24.3-59.63Z"/>
      <path class="cls-8" d="M327.98,570.81c7.24-.18,15.1-.01,22.38,0-9.87,37.49-17.39,78.84-26.78,117.2-17.66,72.17-35.55,144.74-50.4,217.49-5.74,1.18-14.55-.22-20.33-1.28.21-16.19,14.54-68.51,18.93-87.59l31.67-138.31c8.52-36.37,17.45-70.75,24.52-107.53Z"/>
      <path class="cls-8" d="M247.39,316.88c7.59,0,15.18.08,22.76.21-11.12,34.44-23.82,67.89-36.05,101.92l-32.98,94.22c-9.58,27.08-23.44,61.53-29.94,88.41-4.94.61-17.83,1.15-21.38-2.22-.22-9.33,13.27-44.49,17-55.21l25.18-72.19c10.23-29.25,20.61-58.44,31.16-87.58,7.99-22.62,15.5-45.21,24.24-67.56Z"/>
      <path class="cls-8" d="M323.29,107.1c7.45-.13,14.98-.11,22.44-.15-13.61,41.14-30.86,82.1-44.51,123.4-7.94,24.01-16.48,48.98-26.22,72.25l-22.32-.34c3.72-12.74,9.56-27.85,14.09-40.56l24.56-68.88,16.96-47.72c4.4-12.42,8.95-26.43,15.01-38Z"/>
      <path class="cls-4" d="M300.75,850.56c.93,3.37.23,2.54,2.36,4.5,1.87.17,2.6.21,4.47.11-2.81,4.96-8.34,12.64-11.68,17.58l4.85-22.19Z"/>
    </g>
  </g>
</svg>