<?xml version="1.0" encoding="UTF-8"?>
<svg id="Layer_1" xmlns="http://www.w3.org/2000/svg" xmlns:xlink="http://www.w3.org/1999/xlink" version="1.1" viewBox="0 0 750 1000">
  <!-- Generator: Adobe Illustrator 30.3.0, SVG Export Plug-In . SVG Version: 2.1.3 Build 182)  -->
  <defs>
    <style>
      .st0 {
        fill: none;
      }

      .st1 {
        fill: #111;
      }

      .st2 {
        fill: #fbca52;
      }

      .st3 {
        fill: #ea9836;
      }

      .st4, .st5 {
        fill: red;
        stroke: red;
        stroke-miterlimit: 10;
        stroke-width: .25px;
      }

      .st5 {
        display: none;
      }

      .st6 {
        clip-path: url(#clippath);
      }
    </style>
    <clipPath id="clippath">
      <rect class="st0" x="79.37" y="7.13" width="750" height="1000"/>
    </clipPath>
  </defs>
  <g class="st6">
    <g>
      <path class="st1" d="M550.41,93.54c14.26,0,13.19,13.54,11.64,18.3-28.81,88.66-107.7,311.28-107.7,311.28,4.5-.09,149.16,0,151.46,0,13.34,0,12.63,10.46,9.54,15.23-6.8,10.49-284.75,429.24-304.74,457.81-10.82,15.46-13.33,24.1-23.12,24.1h-32.24c-8.34,0-13.24-6.9-11.31-15.05,2.75-11.61,67.8-287.04,67.8-287.04-11.33,0-107.48,0-155.13.21-20.19.09-17.01-19.11-15.2-24.44,28.28-83.49,157.83-439.48,174.69-485.83,1.16-3.18,1.78-4.9,1.81-4.98,2.9-8.2,5.51-10.11,19-10.25,29.9-.33,186.58.66,213.49.66Z"/>
      <path class="st1" d="M363.75,813.54"/>
      <path class="st2" d="M371.37,108.1l111.63-.09c18.29-.03,52.39.09,68.17.09-2.93,8.19-67.35,187.67-70.07,195.15-57.66,0-122.23,1.33-179.56,0,22.96-64.03,48.27-130.93,69.81-195.15h.02Z"/>
      <path class="st2" d="M296.39,317.83l74.28.17c-7.5,20.58-81.32,226.73-85.62,238.44-4.7,13.1,2.85,15.83,10.1,15.83,9.46,0,22.17,0,27.24.01l-6.93,30.48s-92.51,0-121.46,0c14.34-41.08,102.08-284.11,102.4-284.93h0Z"/>
      <path class="st2" d="M597.95,438.35c-10.64,15.85-113.51,169.03-120.78,179.82h-32.12c16.48-45.89,29.02-80.94,44.91-125.65,1.88-5.29.59-10.59-9.96-10.59-16.02,0-43.08-.07-46.3.06.34-1.04,12.9-35.54,15.65-43.64h148.6Z"/>
      <path class="st2" d="M399.23,318h76.58c-5.55,15.46-58.86,163.92-58.86,163.92h-89.35c19.16-53.36,39.79-110.25,58.86-163.92h12.77Z"/>
      <path class="st3" d="M325.14,496.81h147.74c-7.28,20.28-13.89,38.7-21.41,59.63-3.79-.07-136.17.01-150.63,0,7.32-20.03,14.69-40.9,21.41-59.63h2.89Z"/>
      <path class="st3" d="M337.52,572.27c7.27,0,17-.01,24.28,0-9.87,37.49-18.18,78.27-27.57,116.63-17.66,72.17-33.99,143.8-51.13,216.3h-24.27c4.2-17.77,71.7-301.14,78.79-333.43l-.11.5Z"/>
      <path class="st3" d="M283.04,318c-7.62,21.21-93.5,260.39-102.25,284.76h-25.46c3.07-8.61,93.51-262.41,102.25-284.76,0,0,17.88-.13,25.46,0Z"/>
      <path class="st2" d="M466.51,634.06c-4.81-.21-18.79,0-27.22,0-10.48,0-13.47-6.18-9.98-15.9.61-1.68,12.45-35.6,16.48-45.89h-70.48c-1.98,11.97-5.77,26.61-8.58,38.62l-14.02,60.61c-13.68,60.11-27.78,120.13-42.31,180.04,0,0,0,.01,0,.02l-4.85,22.17c3.34-4.94,8.87-12.62,11.68-17.58h0c1.31-1.49,135.86-202.1,149.28-222.09Z"/>
      <path class="st3" d="M358.16,108.1c-7.62,21.21-61.09,170.78-69.84,195.15h-25.46c3.07-8.61,61.1-172.8,69.84-195.15,0,0,17.88-.13,25.46,0Z"/>
    </g>
    <path class="st4" d="M77.85,818.5"/>
    <path class="st4" d="M267.85,289.34"/>
    <line class="st5" x1="358.44" y1="108.02" x2="168.43" y2="637.18"/>
    <line class="st5" x1="375.15" y1="98.26" x2="185.15" y2="627.42"/>
    <line class="st5" x1="588.23" y1="4.92" x2="398.22" y2="534.08"/>
    <line class="st5" x1="508.45" y1="397.76" x2="318.45" y2="926.92"/>
    <line class="st5" x1="393.36" y1="45.91" x2="203.36" y2="575.07"/>
    <line class="st5" x1="493.17" y1="316.32" x2="303.17" y2="845.48"/>
    <line class="st5" x1="405.21" y1="265.77" x2="215.21" y2="794.93"/>
    <line class="st5" x1="370.67" y1="318" x2="176.72" y2="858.15"/>
    <line class="st5" x1="611.91" y1="153.32" x2="421.91" y2="682.48"/>
    <line class="st5" x1="597.95" y1="438.35" x2="305.56" y2="873.73"/>
    <line class="st5" x1="586.54" y1="485.27" x2="294.15" y2="920.66"/>
    <line class="st5" x1="337.64" y1="571.79" x2="251.76" y2="935.14"/>
    <line class="st5" x1="327.89" y1="550.01" x2="242.01" y2="913.35"/>
    <line class="st5" x1="366.19" y1="553.71" x2="280.31" y2="917.06"/>
  </g>
</svg>